<svg width="375" height="210" viewBox="0 0 375 210" fill="none" xmlns="http://www.w3.org/2000/svg">
<rect width="375" height="209" transform="translate(0 0.641846)" fill="black"/>
<path d="M138.644 86.7402L132.128 93.4038V102.754H127V66.6418H132.128V86.8477L151.571 66.6418H157.447L142.17 82.871L158.515 102.754H152.532L138.644 86.7402Z" fill="white"/>
<path d="M195.905 99.8526L197.935 95.9834C200.285 97.5956 203.918 98.7778 207.443 98.7778C212.037 98.7778 213.853 97.3806 213.853 95.0161C213.853 88.8899 196.653 94.1563 196.653 83.301C196.653 78.357 201.033 75.1327 207.977 75.1327C211.503 75.1327 215.562 76.1 217.912 77.6047L215.776 81.4739C213.319 79.8617 210.648 79.3243 207.977 79.3243C203.704 79.3243 201.567 80.9365 201.567 83.0861C201.567 89.5347 218.767 84.2683 218.767 94.9086C218.767 99.8526 214.28 102.969 207.016 102.969C202.636 103.077 198.149 101.68 195.905 99.8526Z" fill="white"/>
<path d="M249 86.2027V102.754H244.299V99.1001C242.697 101.572 239.599 102.969 235.326 102.969C229.13 102.969 225.284 99.6374 225.284 94.9084C225.284 90.5018 228.061 86.9551 236.18 86.9551H243.979V85.9878C243.979 81.7961 241.522 79.4316 236.715 79.4316C233.51 79.4316 230.198 80.6139 228.061 82.3335L226.031 78.5718C228.809 76.3148 232.869 75.025 237.249 75.025C244.834 75.1325 249 78.7867 249 86.2027ZM244.086 94.371V90.5018H236.501C231.587 90.5018 230.198 92.4364 230.198 94.6935C230.198 97.3804 232.441 99.1001 236.18 99.1001C239.919 99.2075 242.911 97.5954 244.086 94.371Z" fill="white"/>
<path d="M180.095 95.5537V102.862L183.193 101.035V93.7266L180.095 95.5537Z" fill="white"/>
<path d="M188.641 86.6328L175.928 79.2168L168.877 75.1327L161.933 87.2777L162.04 98.6703L174.646 106.086L175.928 105.334V94.5862L181.59 84.5907L187.359 87.9226V98.6703L188.641 97.918V86.6328Z" fill="white"/>
<path d="M144.685 130.678C143.901 130.678 143.185 130.49 142.537 130.114C141.897 129.738 141.389 129.226 141.013 128.578C140.645 127.93 140.461 127.218 140.461 126.442C140.461 125.666 140.645 124.954 141.013 124.306C141.389 123.658 141.901 123.146 142.549 122.77C143.197 122.394 143.917 122.206 144.709 122.206C145.501 122.206 146.217 122.39 146.857 122.758C147.505 123.126 148.013 123.634 148.381 124.282C148.749 124.922 148.933 125.634 148.933 126.418C148.933 127.202 148.745 127.922 148.369 128.578C147.993 129.226 147.481 129.738 146.833 130.114C146.185 130.49 145.469 130.678 144.685 130.678ZM144.685 130.138C145.373 130.138 145.997 129.974 146.557 129.646C147.117 129.318 147.557 128.87 147.877 128.302C148.205 127.734 148.369 127.106 148.369 126.418C148.369 125.73 148.209 125.106 147.889 124.546C147.577 123.986 147.141 123.546 146.581 123.226C146.029 122.906 145.405 122.746 144.709 122.746C144.021 122.746 143.393 122.91 142.825 123.238C142.265 123.566 141.825 124.014 141.505 124.582C141.185 125.142 141.025 125.762 141.025 126.442C141.025 127.122 141.185 127.746 141.505 128.314C141.825 128.874 142.265 129.318 142.825 129.646C143.385 129.974 144.005 130.138 144.685 130.138ZM144.817 128.914C144.329 128.914 143.893 128.81 143.509 128.602C143.125 128.394 142.825 128.102 142.609 127.726C142.393 127.35 142.285 126.922 142.285 126.442C142.285 125.962 142.393 125.534 142.609 125.158C142.825 124.782 143.125 124.49 143.509 124.282C143.893 124.074 144.329 123.97 144.817 123.97C145.233 123.97 145.613 124.058 145.957 124.234C146.301 124.41 146.569 124.646 146.761 124.942L146.077 125.434C145.789 125.002 145.365 124.786 144.805 124.786C144.341 124.786 143.957 124.938 143.653 125.242C143.349 125.546 143.197 125.946 143.197 126.442C143.197 126.938 143.349 127.338 143.653 127.642C143.957 127.946 144.341 128.098 144.805 128.098C145.365 128.098 145.789 127.882 146.077 127.45L146.761 127.93C146.569 128.234 146.301 128.474 145.957 128.65C145.613 128.826 145.233 128.914 144.817 128.914ZM159.209 129.598V130.642H153.173V129.826L156.593 126.526C157.009 126.126 157.289 125.782 157.433 125.494C157.577 125.198 157.649 124.902 157.649 124.606C157.649 124.166 157.493 123.826 157.181 123.586C156.877 123.338 156.437 123.214 155.861 123.214C154.933 123.214 154.217 123.518 153.713 124.126L152.897 123.418C153.225 123.018 153.653 122.706 154.181 122.482C154.717 122.258 155.313 122.146 155.969 122.146C156.849 122.146 157.549 122.358 158.069 122.782C158.589 123.198 158.849 123.766 158.849 124.486C158.849 124.934 158.753 125.358 158.561 125.758C158.369 126.158 158.005 126.614 157.469 127.126L154.901 129.598H159.209ZM163.592 130.738C162.928 130.738 162.336 130.57 161.816 130.234C161.304 129.89 160.9 129.394 160.604 128.746C160.308 128.098 160.16 127.33 160.16 126.442C160.16 125.554 160.308 124.786 160.604 124.138C160.9 123.49 161.304 122.998 161.816 122.662C162.336 122.318 162.928 122.146 163.592 122.146C164.248 122.146 164.832 122.318 165.344 122.662C165.864 122.998 166.272 123.49 166.568 124.138C166.864 124.786 167.012 125.554 167.012 126.442C167.012 127.33 166.864 128.098 166.568 128.746C166.272 129.394 165.864 129.89 165.344 130.234C164.832 130.57 164.248 130.738 163.592 130.738ZM163.592 129.67C164.264 129.67 164.8 129.394 165.2 128.842C165.608 128.29 165.812 127.49 165.812 126.442C165.812 125.394 165.608 124.594 165.2 124.042C164.8 123.49 164.264 123.214 163.592 123.214C162.912 123.214 162.368 123.49 161.96 124.042C161.56 124.594 161.36 125.394 161.36 126.442C161.36 127.49 161.56 128.29 161.96 128.842C162.368 129.394 162.912 129.67 163.592 129.67ZM174.033 129.598V130.642H167.997V129.826L171.417 126.526C171.833 126.126 172.113 125.782 172.257 125.494C172.401 125.198 172.473 124.902 172.473 124.606C172.473 124.166 172.317 123.826 172.005 123.586C171.701 123.338 171.261 123.214 170.685 123.214C169.757 123.214 169.041 123.518 168.537 124.126L167.721 123.418C168.049 123.018 168.477 122.706 169.005 122.482C169.541 122.258 170.137 122.146 170.793 122.146C171.673 122.146 172.373 122.358 172.893 122.782C173.413 123.198 173.673 123.766 173.673 124.486C173.673 124.934 173.577 125.358 173.385 125.758C173.193 126.158 172.829 126.614 172.293 127.126L169.725 129.598H174.033ZM178.416 130.738C177.752 130.738 177.16 130.57 176.64 130.234C176.128 129.89 175.724 129.394 175.428 128.746C175.132 128.098 174.984 127.33 174.984 126.442C174.984 125.554 175.132 124.786 175.428 124.138C175.724 123.49 176.128 122.998 176.64 122.662C177.16 122.318 177.752 122.146 178.416 122.146C179.072 122.146 179.656 122.318 180.168 122.662C180.688 122.998 181.096 123.49 181.392 124.138C181.688 124.786 181.836 125.554 181.836 126.442C181.836 127.33 181.688 128.098 181.392 128.746C181.096 129.394 180.688 129.89 180.168 130.234C179.656 130.57 179.072 130.738 178.416 130.738ZM178.416 129.67C179.088 129.67 179.624 129.394 180.024 128.842C180.432 128.29 180.636 127.49 180.636 126.442C180.636 125.394 180.432 124.594 180.024 124.042C179.624 123.49 179.088 123.214 178.416 123.214C177.736 123.214 177.192 123.49 176.784 124.042C176.384 124.594 176.184 125.394 176.184 126.442C176.184 127.49 176.384 128.29 176.784 128.842C177.192 129.394 177.736 129.67 178.416 129.67ZM189.631 126.91L188.095 128.47V130.642H186.895V122.242H188.095V126.934L192.655 122.242H194.023L190.435 126.022L194.251 130.642H192.847L189.631 126.91ZM197.515 124.222C198.395 124.222 199.067 124.438 199.531 124.87C200.003 125.302 200.239 125.946 200.239 126.802V130.642H199.147V129.802C198.955 130.098 198.679 130.326 198.319 130.486C197.967 130.638 197.547 130.714 197.059 130.714C196.347 130.714 195.775 130.542 195.343 130.198C194.919 129.854 194.707 129.402 194.707 128.842C194.707 128.282 194.911 127.834 195.319 127.498C195.727 127.154 196.375 126.982 197.263 126.982H199.087V126.754C199.087 126.258 198.943 125.878 198.655 125.614C198.367 125.35 197.943 125.218 197.383 125.218C197.007 125.218 196.639 125.282 196.279 125.41C195.919 125.53 195.615 125.694 195.367 125.902L194.887 125.038C195.215 124.774 195.607 124.574 196.063 124.438C196.519 124.294 197.003 124.222 197.515 124.222ZM197.251 129.826C197.691 129.826 198.071 129.73 198.391 129.538C198.711 129.338 198.943 129.058 199.087 128.698V127.81H197.311C196.335 127.81 195.847 128.138 195.847 128.794C195.847 129.114 195.971 129.366 196.219 129.55C196.467 129.734 196.811 129.826 197.251 129.826ZM204.195 130.714C203.675 130.714 203.175 130.646 202.695 130.51C202.215 130.366 201.839 130.186 201.567 129.97L202.047 129.058C202.327 129.258 202.667 129.418 203.067 129.538C203.467 129.658 203.871 129.718 204.279 129.718C205.287 129.718 205.791 129.43 205.791 128.854C205.791 128.662 205.723 128.51 205.587 128.398C205.451 128.286 205.279 128.206 205.071 128.158C204.871 128.102 204.583 128.042 204.207 127.978C203.695 127.898 203.275 127.806 202.947 127.702C202.627 127.598 202.351 127.422 202.119 127.174C201.887 126.926 201.771 126.578 201.771 126.13C201.771 125.554 202.011 125.094 202.491 124.75C202.971 124.398 203.615 124.222 204.423 124.222C204.847 124.222 205.271 124.274 205.695 124.378C206.119 124.482 206.467 124.622 206.739 124.798L206.247 125.71C205.727 125.374 205.115 125.206 204.411 125.206C203.923 125.206 203.551 125.286 203.295 125.446C203.039 125.606 202.911 125.818 202.911 126.082C202.911 126.29 202.983 126.454 203.127 126.574C203.271 126.694 203.447 126.782 203.655 126.838C203.871 126.894 204.171 126.958 204.555 127.03C205.067 127.118 205.479 127.214 205.791 127.318C206.111 127.414 206.383 127.582 206.607 127.822C206.831 128.062 206.943 128.398 206.943 128.83C206.943 129.406 206.695 129.866 206.199 130.21C205.711 130.546 205.043 130.714 204.195 130.714ZM210.699 124.222C211.579 124.222 212.251 124.438 212.715 124.87C213.187 125.302 213.423 125.946 213.423 126.802V130.642H212.331V129.802C212.139 130.098 211.863 130.326 211.503 130.486C211.151 130.638 210.731 130.714 210.243 130.714C209.531 130.714 208.959 130.542 208.527 130.198C208.103 129.854 207.891 129.402 207.891 128.842C207.891 128.282 208.095 127.834 208.503 127.498C208.911 127.154 209.559 126.982 210.447 126.982H212.271V126.754C212.271 126.258 212.127 125.878 211.839 125.614C211.551 125.35 211.127 125.218 210.567 125.218C210.191 125.218 209.823 125.282 209.463 125.41C209.103 125.53 208.799 125.694 208.551 125.902L208.071 125.038C208.399 124.774 208.791 124.574 209.247 124.438C209.703 124.294 210.187 124.222 210.699 124.222ZM210.435 129.826C210.875 129.826 211.255 129.73 211.575 129.538C211.895 129.338 212.127 129.058 212.271 128.698V127.81H210.495C209.519 127.81 209.031 128.138 209.031 128.794C209.031 129.114 209.155 129.366 209.403 129.55C209.651 129.734 209.995 129.826 210.435 129.826ZM215.831 130.714C215.607 130.714 215.415 130.638 215.255 130.486C215.095 130.326 215.015 130.126 215.015 129.886C215.015 129.654 215.095 129.462 215.255 129.31C215.415 129.15 215.607 129.07 215.831 129.07C216.055 129.07 216.243 129.146 216.395 129.298C216.547 129.45 216.623 129.646 216.623 129.886C216.623 130.126 216.543 130.326 216.383 130.486C216.231 130.638 216.047 130.714 215.831 130.714ZM227.016 128.542H222.552L221.628 130.642H220.392L224.196 122.242H225.384L229.2 130.642H227.94L227.016 128.542ZM226.596 127.582L224.784 123.466L222.972 127.582H226.596ZM230.285 121.738H231.437V130.642H230.285V121.738ZM233.637 121.738H234.789V130.642H233.637V121.738ZM144.342 142.35C144.542 141.982 144.838 141.702 145.23 141.51C145.622 141.318 146.098 141.222 146.658 141.222V142.338C146.594 142.33 146.506 142.326 146.394 142.326C145.77 142.326 145.278 142.514 144.918 142.89C144.566 143.258 144.39 143.786 144.39 144.474V147.642H143.238V141.282H144.342V142.35ZM148.078 141.282H149.23V147.642H148.078V141.282ZM148.654 140.058C148.43 140.058 148.242 139.986 148.09 139.842C147.946 139.698 147.874 139.522 147.874 139.314C147.874 139.106 147.946 138.93 148.09 138.786C148.242 138.634 148.43 138.558 148.654 138.558C148.878 138.558 149.062 138.63 149.206 138.774C149.358 138.91 149.434 139.082 149.434 139.29C149.434 139.506 149.358 139.69 149.206 139.842C149.062 139.986 148.878 140.058 148.654 140.058ZM157.514 141.282V146.778C157.514 147.89 157.238 148.71 156.686 149.238C156.134 149.774 155.31 150.042 154.214 150.042C153.614 150.042 153.042 149.958 152.498 149.79C151.954 149.63 151.514 149.398 151.178 149.094L151.73 148.206C152.026 148.462 152.39 148.662 152.822 148.806C153.262 148.958 153.714 149.034 154.178 149.034C154.922 149.034 155.47 148.858 155.822 148.506C156.182 148.154 156.362 147.618 156.362 146.898V146.394C156.09 146.722 155.754 146.97 155.354 147.138C154.962 147.298 154.534 147.378 154.07 147.378C153.462 147.378 152.91 147.25 152.414 146.994C151.926 146.73 151.542 146.366 151.262 145.902C150.982 145.43 150.842 144.894 150.842 144.294C150.842 143.694 150.982 143.162 151.262 142.698C151.542 142.226 151.926 141.862 152.414 141.606C152.91 141.35 153.462 141.222 154.07 141.222C154.55 141.222 154.994 141.31 155.402 141.486C155.818 141.662 156.158 141.922 156.422 142.266V141.282H157.514ZM154.202 146.37C154.618 146.37 154.99 146.282 155.318 146.106C155.654 145.93 155.914 145.686 156.098 145.374C156.29 145.054 156.386 144.694 156.386 144.294C156.386 143.678 156.182 143.182 155.774 142.806C155.366 142.422 154.842 142.23 154.202 142.23C153.554 142.23 153.026 142.422 152.618 142.806C152.21 143.182 152.006 143.678 152.006 144.294C152.006 144.694 152.098 145.054 152.282 145.374C152.474 145.686 152.734 145.93 153.062 146.106C153.398 146.282 153.778 146.37 154.202 146.37ZM163.111 141.222C163.919 141.222 164.559 141.458 165.031 141.93C165.511 142.394 165.751 143.078 165.751 143.982V147.642H164.599V144.114C164.599 143.498 164.451 143.034 164.155 142.722C163.859 142.41 163.435 142.254 162.883 142.254C162.259 142.254 161.767 142.438 161.407 142.806C161.047 143.166 160.867 143.686 160.867 144.366V147.642H159.715V138.738H160.867V142.182C161.107 141.878 161.419 141.642 161.803 141.474C162.195 141.306 162.631 141.222 163.111 141.222ZM171.459 147.27C171.291 147.414 171.083 147.526 170.835 147.606C170.587 147.678 170.331 147.714 170.067 147.714C169.427 147.714 168.931 147.542 168.579 147.198C168.227 146.854 168.051 146.362 168.051 145.722V142.23H166.971V141.282H168.051V139.89H169.203V141.282H171.027V142.23H169.203V145.674C169.203 146.018 169.287 146.282 169.455 146.466C169.631 146.65 169.879 146.742 170.199 146.742C170.551 146.742 170.851 146.642 171.099 146.442L171.459 147.27ZM174.676 147.714C174.156 147.714 173.656 147.646 173.176 147.51C172.696 147.366 172.32 147.186 172.048 146.97L172.528 146.058C172.808 146.258 173.148 146.418 173.548 146.538C173.948 146.658 174.352 146.718 174.76 146.718C175.768 146.718 176.272 146.43 176.272 145.854C176.272 145.662 176.204 145.51 176.068 145.398C175.932 145.286 175.76 145.206 175.552 145.158C175.352 145.102 175.064 145.042 174.688 144.978C174.176 144.898 173.756 144.806 173.428 144.702C173.108 144.598 172.832 144.422 172.6 144.174C172.368 143.926 172.252 143.578 172.252 143.13C172.252 142.554 172.492 142.094 172.972 141.75C173.452 141.398 174.096 141.222 174.904 141.222C175.328 141.222 175.752 141.274 176.176 141.378C176.6 141.482 176.948 141.622 177.22 141.798L176.728 142.71C176.208 142.374 175.596 142.206 174.892 142.206C174.404 142.206 174.032 142.286 173.776 142.446C173.52 142.606 173.392 142.818 173.392 143.082C173.392 143.29 173.464 143.454 173.608 143.574C173.752 143.694 173.928 143.782 174.136 143.838C174.352 143.894 174.652 143.958 175.036 144.03C175.548 144.118 175.96 144.214 176.272 144.318C176.592 144.414 176.864 144.582 177.088 144.822C177.312 145.062 177.424 145.398 177.424 145.83C177.424 146.406 177.176 146.866 176.68 147.21C176.192 147.546 175.524 147.714 174.676 147.714ZM183.19 142.35C183.39 141.982 183.686 141.702 184.078 141.51C184.47 141.318 184.946 141.222 185.506 141.222V142.338C185.442 142.33 185.354 142.326 185.242 142.326C184.618 142.326 184.126 142.514 183.766 142.89C183.414 143.258 183.238 143.786 183.238 144.474V147.642H182.086V141.282H183.19V142.35ZM192.615 144.498C192.615 144.586 192.607 144.702 192.591 144.846H187.431C187.503 145.406 187.747 145.858 188.163 146.202C188.587 146.538 189.111 146.706 189.735 146.706C190.495 146.706 191.107 146.45 191.571 145.938L192.207 146.682C191.919 147.018 191.559 147.274 191.127 147.45C190.703 147.626 190.227 147.714 189.699 147.714C189.027 147.714 188.431 147.578 187.911 147.306C187.391 147.026 186.987 146.638 186.699 146.142C186.419 145.646 186.279 145.086 186.279 144.462C186.279 143.846 186.415 143.29 186.687 142.794C186.967 142.298 187.347 141.914 187.827 141.642C188.315 141.362 188.863 141.222 189.471 141.222C190.079 141.222 190.619 141.362 191.091 141.642C191.571 141.914 191.943 142.298 192.207 142.794C192.479 143.29 192.615 143.858 192.615 144.498ZM189.471 142.194C188.919 142.194 188.455 142.362 188.079 142.698C187.711 143.034 187.495 143.474 187.431 144.018H191.511C191.447 143.482 191.227 143.046 190.851 142.71C190.483 142.366 190.023 142.194 189.471 142.194ZM196.039 147.714C195.519 147.714 195.019 147.646 194.539 147.51C194.059 147.366 193.683 147.186 193.411 146.97L193.891 146.058C194.171 146.258 194.511 146.418 194.911 146.538C195.311 146.658 195.715 146.718 196.123 146.718C197.131 146.718 197.635 146.43 197.635 145.854C197.635 145.662 197.567 145.51 197.431 145.398C197.295 145.286 197.123 145.206 196.915 145.158C196.715 145.102 196.427 145.042 196.051 144.978C195.539 144.898 195.119 144.806 194.791 144.702C194.471 144.598 194.195 144.422 193.963 144.174C193.731 143.926 193.615 143.578 193.615 143.13C193.615 142.554 193.855 142.094 194.335 141.75C194.815 141.398 195.459 141.222 196.267 141.222C196.691 141.222 197.115 141.274 197.539 141.378C197.963 141.482 198.311 141.622 198.583 141.798L198.091 142.71C197.571 142.374 196.959 142.206 196.255 142.206C195.767 142.206 195.395 142.286 195.139 142.446C194.883 142.606 194.755 142.818 194.755 143.082C194.755 143.29 194.827 143.454 194.971 143.574C195.115 143.694 195.291 143.782 195.499 143.838C195.715 143.894 196.015 143.958 196.399 144.03C196.911 144.118 197.323 144.214 197.635 144.318C197.955 144.414 198.227 144.582 198.451 144.822C198.675 145.062 198.787 145.398 198.787 145.83C198.787 146.406 198.539 146.866 198.043 147.21C197.555 147.546 196.887 147.714 196.039 147.714ZM205.975 144.498C205.975 144.586 205.967 144.702 205.951 144.846H200.791C200.863 145.406 201.107 145.858 201.523 146.202C201.947 146.538 202.471 146.706 203.095 146.706C203.855 146.706 204.467 146.45 204.931 145.938L205.567 146.682C205.279 147.018 204.919 147.274 204.487 147.45C204.063 147.626 203.587 147.714 203.059 147.714C202.387 147.714 201.791 147.578 201.271 147.306C200.751 147.026 200.347 146.638 200.059 146.142C199.779 145.646 199.639 145.086 199.639 144.462C199.639 143.846 199.775 143.29 200.047 142.794C200.327 142.298 200.707 141.914 201.187 141.642C201.675 141.362 202.223 141.222 202.831 141.222C203.439 141.222 203.979 141.362 204.451 141.642C204.931 141.914 205.303 142.298 205.567 142.794C205.839 143.29 205.975 143.858 205.975 144.498ZM202.831 142.194C202.279 142.194 201.815 142.362 201.439 142.698C201.071 143.034 200.855 143.474 200.791 144.018H204.871C204.807 143.482 204.587 143.046 204.211 142.71C203.843 142.366 203.383 142.194 202.831 142.194ZM208.678 142.35C208.878 141.982 209.174 141.702 209.566 141.51C209.958 141.318 210.434 141.222 210.994 141.222V142.338C210.93 142.33 210.842 142.326 210.73 142.326C210.106 142.326 209.614 142.514 209.254 142.89C208.902 143.258 208.726 143.786 208.726 144.474V147.642H207.574V141.282H208.678V142.35ZM218.3 141.282L215.516 147.642H214.34L211.556 141.282H212.756L214.94 146.382L217.172 141.282H218.3ZM224.947 144.498C224.947 144.586 224.939 144.702 224.923 144.846H219.763C219.835 145.406 220.079 145.858 220.495 146.202C220.919 146.538 221.443 146.706 222.067 146.706C222.827 146.706 223.439 146.45 223.903 145.938L224.539 146.682C224.251 147.018 223.891 147.274 223.459 147.45C223.035 147.626 222.559 147.714 222.031 147.714C221.359 147.714 220.763 147.578 220.243 147.306C219.723 147.026 219.319 146.638 219.031 146.142C218.751 145.646 218.611 145.086 218.611 144.462C218.611 143.846 218.747 143.29 219.019 142.794C219.299 142.298 219.679 141.914 220.159 141.642C220.647 141.362 221.195 141.222 221.803 141.222C222.411 141.222 222.951 141.362 223.423 141.642C223.903 141.914 224.275 142.298 224.539 142.794C224.811 143.29 224.947 143.858 224.947 144.498ZM221.803 142.194C221.251 142.194 220.787 142.362 220.411 142.698C220.043 143.034 219.827 143.474 219.763 144.018H223.843C223.779 143.482 223.559 143.046 223.183 142.71C222.815 142.366 222.355 142.194 221.803 142.194ZM232.547 138.738V147.642H231.443V146.634C231.187 146.986 230.863 147.254 230.471 147.438C230.079 147.622 229.647 147.714 229.175 147.714C228.559 147.714 228.007 147.578 227.519 147.306C227.031 147.034 226.647 146.654 226.367 146.166C226.095 145.67 225.959 145.102 225.959 144.462C225.959 143.822 226.095 143.258 226.367 142.77C226.647 142.282 227.031 141.902 227.519 141.63C228.007 141.358 228.559 141.222 229.175 141.222C229.631 141.222 230.051 141.31 230.435 141.486C230.819 141.654 231.139 141.906 231.395 142.242V138.738H232.547ZM229.271 146.706C229.671 146.706 230.035 146.614 230.363 146.43C230.691 146.238 230.947 145.974 231.131 145.638C231.315 145.294 231.407 144.902 231.407 144.462C231.407 144.022 231.315 143.634 231.131 143.298C230.947 142.954 230.691 142.69 230.363 142.506C230.035 142.322 229.671 142.23 229.271 142.23C228.863 142.23 228.495 142.322 228.167 142.506C227.847 142.69 227.591 142.954 227.399 143.298C227.215 143.634 227.123 144.022 227.123 144.462C227.123 144.902 227.215 145.294 227.399 145.638C227.591 145.974 227.847 146.238 228.167 146.43C228.495 146.614 228.863 146.706 229.271 146.706Z" fill="white"/>
</svg>
